HIERARCHY
ROOT Hips
{
	OFFSET 0.000000 71.427986 0.000000
	CHANNELS 6 Xposition Yposition Zposition Xrotation Yrotation Zrotation
	JOINT Pelvis
	{
		OFFSET 0.000000 0.000000 0.000000
		CHANNELS 3 Xrotation Yrotation Zrotation
		JOINT LeftUpLeg
		{
			OFFSET 6.797100 -2.508499 -1.318700
			CHANNELS 3 Xrotation Yrotation Zrotation
			JOINT LeftLeg
			{
				OFFSET 0.069008 -29.241863 0.690200
				CHANNELS 3 Xrotation Yrotation Zrotation
				JOINT LeftFoot
				{
					OFFSET -0.069008 -29.568123 -0.266800
					CHANNELS 3 Xrotation Yrotation Zrotation
					JOINT LeftToeBase
					{
						OFFSET 3.145500 -8.631000 16.059900
						CHANNELS 3 Xrotation Yrotation Zrotation
						End Site
						{
							OFFSET 0.000000 18.501587 0.000000
						}
					}
				}
			}
			JOINT Left_ShortSleeve
			{
				OFFSET 0.265923 -10.480953 1.153800
				CHANNELS 3 Xrotation Yrotation Zrotation
				End Site
				{
					OFFSET 1.725763 19.823879 0.000000
				}
			}
		}
		JOINT RightUpLeg
		{
			OFFSET -6.797100 -2.508499 -1.318700
			CHANNELS 3 Xrotation Yrotation Zrotation
			JOINT RightLeg
			{
				OFFSET -0.082453 -29.241932 0.688000
				CHANNELS 3 Xrotation Yrotation Zrotation
				JOINT RightFoot
				{
					OFFSET 0.082453 -29.568058 -0.264600
					CHANNELS 3 Xrotation Yrotation Zrotation
					JOINT RightToeBase
					{
						OFFSET -3.115300 -8.682800 16.113400
						CHANNELS 3 Xrotation Yrotation Zrotation
						End Site
						{
							OFFSET 0.000000 18.567114 0.000000
						}
					}
				}
			}
			JOINT Right_ShortSleeve
			{
				OFFSET -0.265923 -10.480953 1.153800
				CHANNELS 3 Xrotation Yrotation Zrotation
				End Site
				{
					OFFSET -1.725766 19.823910 0.000000
				}
			}
		}
	}
	JOINT Spine
	{
		OFFSET 0.000000 13.368103 0.470500
		CHANNELS 3 Xrotation Yrotation Zrotation
		JOINT Spine1
		{
			OFFSET 0.147000 13.837402 0.538800
			CHANNELS 3 Xrotation Yrotation Zrotation
			JOINT Spine2
			{
				OFFSET 0.168000 16.242897 -1.435500
				CHANNELS 3 Xrotation Yrotation Zrotation
				JOINT Neck
				{
					OFFSET 0.217200 18.631500 -1.679100
					CHANNELS 3 Xrotation Yrotation Zrotation
					JOINT Head
					{
						OFFSET 0.000000 6.599396 1.385900
						CHANNELS 3 Xrotation Yrotation Zrotation
						JOINT Hat
						{
							OFFSET -0.532200 27.220596 -10.096100
							CHANNELS 3 Xrotation Yrotation Zrotation
							End Site
							{
								OFFSET 0.000000 22.029861 0.000000
							}
						}
						JOINT HairD
						{
							OFFSET -10.777400 17.437393 -1.325900
							CHANNELS 3 Xrotation Yrotation Zrotation
							JOINT HairD1
							{
								OFFSET -3.290299 -11.051193 1.062200
								CHANNELS 3 Xrotation Yrotation Zrotation
								End Site
								{
									OFFSET 0.000000 11.579437 0.000000
								}
							}
						}
						JOINT HairB
						{
							OFFSET -10.777400 17.437393 1.467900
							CHANNELS 3 Xrotation Yrotation Zrotation
							JOINT HairB1
							{
								OFFSET -1.561200 -12.956299 3.590200
								CHANNELS 3 Xrotation Yrotation Zrotation
								End Site
								{
									OFFSET 0.000000 13.534866 0.000000
								}
							}
						}
						JOINT HairA
						{
							OFFSET 9.713100 17.437393 1.467900
							CHANNELS 3 Xrotation Yrotation Zrotation
							JOINT HairA1
							{
								OFFSET 1.561200 -12.956299 3.590200
								CHANNELS 3 Xrotation Yrotation Zrotation
								End Site
								{
									OFFSET 0.000000 13.534866 0.000000
								}
							}
						}
						JOINT HairC
						{
							OFFSET 9.713100 17.437393 -1.325900
							CHANNELS 3 Xrotation Yrotation Zrotation
							JOINT HairC1
							{
								OFFSET 3.290300 -11.051193 1.062200
								CHANNELS 3 Xrotation Yrotation Zrotation
								End Site
								{
									OFFSET 0.000000 11.579437 0.000000
								}
							}
						}
					}
				}
				JOINT LeftShoulder
				{
					OFFSET 5.101800 15.108002 -2.763700
					CHANNELS 3 Xrotation Yrotation Zrotation
					JOINT LeftArm
					{
						OFFSET 9.825497 2.506317 -1.597400
						CHANNELS 3 Xrotation Yrotation Zrotation
						JOINT LeftForeArm
						{
							OFFSET 21.966244 0.000000 0.000000
							CHANNELS 3 Xrotation Yrotation Zrotation
							JOINT LeftHand
							{
								OFFSET 33.879036 0.000000 0.000000
								CHANNELS 3 Xrotation Yrotation Zrotation
								JOINT LeftHandThumb1
								{
									OFFSET 6.715286 -2.359680 3.363841
									CHANNELS 3 Xrotation Yrotation Zrotation
									JOINT LeftHandThumb2
									{
										OFFSET 2.507072 -1.447464 1.447461
										CHANNELS 3 Xrotation Yrotation Zrotation
										JOINT LeftHandThumb3
										{
											OFFSET 2.898338 -1.673355 1.673357
											CHANNELS 3 Xrotation Yrotation Zrotation
											End Site
											{
												OFFSET -0.295959 3.727692 -0.131651
											}
										}
									}
								}
								JOINT LeftHandIndex1
								{
									OFFSET 14.190811 -0.254547 3.840278
									CHANNELS 3 Xrotation Yrotation Zrotation
									JOINT LeftHandIndex2
									{
										OFFSET 3.551727 0.000000 -0.000000
										CHANNELS 3 Xrotation Yrotation Zrotation
										JOINT LeftHandIndex3
										{
											OFFSET 2.894196 0.000000 0.000000
											CHANNELS 3 Xrotation Yrotation Zrotation
											End Site
											{
												OFFSET -1.000603 2.690872 0.366626
											}
										}
									}
								}
								JOINT LeftHandMiddle1
								{
									OFFSET 13.776489 0.000000 0.000000
									CHANNELS 3 Xrotation Yrotation Zrotation
									JOINT LeftHandMiddle2
									{
										OFFSET 3.438232 0.000000 0.000000
										CHANNELS 3 Xrotation Yrotation Zrotation
										JOINT LeftHandMiddle3
										{
											OFFSET 3.691551 0.000000 0.000000
											CHANNELS 3 Xrotation Yrotation Zrotation
											End Site
											{
												OFFSET -1.082298 3.499527 0.457670
											}
										}
									}
								}
								JOINT LeftHandRing1
								{
									OFFSET 13.966164 -0.268127 -3.067488
									CHANNELS 3 Xrotation Yrotation Zrotation
									JOINT LeftHandRing2
									{
										OFFSET 3.162567 0.000000 0.000000
										CHANNELS 3 Xrotation Yrotation Zrotation
										JOINT LeftHandRing3
										{
											OFFSET 3.324348 0.000000 0.000000
											CHANNELS 3 Xrotation Yrotation Zrotation
											End Site
											{
												OFFSET -0.861900 3.184998 0.405154
											}
										}
									}
								}
								JOINT LeftHandPinky1
								{
									OFFSET 13.131393 -0.168503 -5.746925
									CHANNELS 3 Xrotation Yrotation Zrotation
									JOINT LeftHandPinky2
									{
										OFFSET 2.849182 0.000000 0.000000
										CHANNELS 3 Xrotation Yrotation Zrotation
										JOINT LeftHandPinky3
										{
											OFFSET 2.805038 0.000000 0.000000
											CHANNELS 3 Xrotation Yrotation Zrotation
											End Site
											{
												OFFSET -0.882500 2.642609 0.325652
											}
										}
									}
								}
							}
							JOINT Left_Sleeve
							{
								OFFSET 6.592125 -0.646545 0.805568
								CHANNELS 3 Xrotation Yrotation Zrotation
								End Site
								{
									OFFSET -0.000179 20.275787 -0.000000
								}
							}
						}
					}
				}
				JOINT RightShoulder
				{
					OFFSET -5.731700 15.108002 -2.763700
					CHANNELS 3 Xrotation Yrotation Zrotation
					JOINT RightArm
					{
						OFFSET -9.825497 2.506317 -1.597400
						CHANNELS 3 Xrotation Yrotation Zrotation
						JOINT RightForeArm
						{
							OFFSET -21.966242 0.000000 0.000000
							CHANNELS 3 Xrotation Yrotation Zrotation
							JOINT RightHand
							{
								OFFSET -33.879032 0.000000 0.000000
								CHANNELS 3 Xrotation Yrotation Zrotation
								JOINT RightHandThumb1
								{
									OFFSET -6.715286 -2.359680 3.363841
									CHANNELS 3 Xrotation Yrotation Zrotation
									JOINT RightHandThumb2
									{
										OFFSET -2.507072 -1.447464 1.447461
										CHANNELS 3 Xrotation Yrotation Zrotation
										JOINT RightHandThumb3
										{
											OFFSET -2.898338 -1.673355 1.673357
											CHANNELS 3 Xrotation Yrotation Zrotation
											End Site
											{
												OFFSET 0.295959 3.727692 -0.131651
											}
										}
									}
								}
								JOINT RightHandIndex1
								{
									OFFSET -14.190811 -0.254547 3.840278
									CHANNELS 3 Xrotation Yrotation Zrotation
									JOINT RightHandIndex2
									{
										OFFSET -3.551727 0.000000 -0.000000
										CHANNELS 3 Xrotation Yrotation Zrotation
										JOINT RightHandIndex3
										{
											OFFSET -2.894196 0.000000 0.000000
											CHANNELS 3 Xrotation Yrotation Zrotation
											End Site
											{
												OFFSET 1.000603 2.690872 0.366626
											}
										}
									}
								}
								JOINT RightHandMiddle1
								{
									OFFSET -13.776489 0.000000 0.000000
									CHANNELS 3 Xrotation Yrotation Zrotation
									JOINT RightHandMiddle2
									{
										OFFSET -3.438232 0.000000 0.000000
										CHANNELS 3 Xrotation Yrotation Zrotation
										JOINT RightHandMiddle3
										{
											OFFSET -3.691551 0.000000 0.000000
											CHANNELS 3 Xrotation Yrotation Zrotation
											End Site
											{
												OFFSET 1.082298 3.499527 0.457670
											}
										}
									}
								}
								JOINT RightHandRing1
								{
									OFFSET -13.966164 -0.268127 -3.067488
									CHANNELS 3 Xrotation Yrotation Zrotation
									JOINT RightHandRing2
									{
										OFFSET -3.162567 0.000000 0.000000
										CHANNELS 3 Xrotation Yrotation Zrotation
										JOINT RightHandRing3
										{
											OFFSET -3.324348 0.000000 0.000000
											CHANNELS 3 Xrotation Yrotation Zrotation
											End Site
											{
												OFFSET 0.861900 3.184998 0.405154
											}
										}
									}
								}
								JOINT RightHandPinky1
								{
									OFFSET -13.131393 -0.168503 -5.746925
									CHANNELS 3 Xrotation Yrotation Zrotation
									JOINT RightHandPinky2
									{
										OFFSET -2.849182 0.000000 0.000000
										CHANNELS 3 Xrotation Yrotation Zrotation
										JOINT RightHandPinky3
										{
											OFFSET -2.805038 0.000000 0.000000
											CHANNELS 3 Xrotation Yrotation Zrotation
											End Site
											{
												OFFSET 0.882500 2.642609 0.325652
											}
										}
									}
								}
							}
							JOINT Right_Sleeve
							{
								OFFSET -6.592125 -0.646545 0.805568
								CHANNELS 3 Xrotation Yrotation Zrotation
								End Site
								{
									OFFSET 0.000179 20.275787 -0.000000
								}
							}
						}
					}
				}
				JOINT Bind_Right_JacketString
				{
					OFFSET -3.534800 11.969597 7.200700
					CHANNELS 3 Xrotation Yrotation Zrotation
					JOINT Bind_Right_JacketString1
					{
						OFFSET -0.319900 -6.102600 2.794100
						CHANNELS 3 Xrotation Yrotation Zrotation
						End Site
						{
							OFFSET 0.000000 6.719452 0.000000
						}
					}
				}
				JOINT Bind_Left_JacketString
				{
					OFFSET 2.904800 11.969597 7.200700
					CHANNELS 3 Xrotation Yrotation Zrotation
					JOINT Bind_Left_JacketString1
					{
						OFFSET 0.364800 -5.904503 3.186800
						CHANNELS 3 Xrotation Yrotation Zrotation
						End Site
						{
							OFFSET 0.000000 6.719513 0.000000
						}
					}
				}
				JOINT HairE
				{
					OFFSET 5.915200 17.612701 -11.592200
					CHANNELS 3 Xrotation Yrotation Zrotation
					JOINT HairE1
					{
						OFFSET 0.289200 -7.171898 -1.284500
						CHANNELS 3 Xrotation Yrotation Zrotation
						End Site
						{
							OFFSET 0.000000 7.291756 0.000000
						}
					}
				}
				JOINT HairF
				{
					OFFSET -0.864800 17.612701 -11.592200
					CHANNELS 3 Xrotation Yrotation Zrotation
					JOINT HairF1
					{
						OFFSET 0.000000 -14.087097 -2.127501
						CHANNELS 3 Xrotation Yrotation Zrotation
						End Site
						{
							OFFSET 0.000000 14.246841 0.000000
						}
					}
				}
				JOINT HairG
				{
					OFFSET -8.087700 17.612701 -11.592200
					CHANNELS 3 Xrotation Yrotation Zrotation
					JOINT HairG1
					{
						OFFSET -0.293600 -6.081398 -0.910100
						CHANNELS 3 Xrotation Yrotation Zrotation
						End Site
						{
							OFFSET 0.000000 6.156120 0.000000
						}
					}
				}
			}
		}
	}
	JOINT Pouch
	{
		OFFSET 0.000000 4.394501 10.847300
		CHANNELS 3 Xrotation Yrotation Zrotation
		End Site
		{
			OFFSET 0.000000 21.880577 0.000000
		}
	}
	JOINT Bag
	{
		OFFSET -13.229000 4.813004 -0.593300
		CHANNELS 3 Xrotation Yrotation Zrotation
		End Site
		{
			OFFSET 0.000000 21.880577 0.000000
		}
	}
	JOINT OccupyGuyFacialAnim_Joint
	{
		OFFSET 1.000000 -70.206398 -1.655000
		CHANNELS 3 Xrotation Yrotation Zrotation
		End Site
		{
			OFFSET 0.000000 21.880577 0.000000
		}
	}
}
MOTION
Frames: 4
Frame Time: 0.016667
0.081686 59.028633 0.635554 11.811399 2.969309 -1.355718 0.000001 -0.000000 -0.000000 -53.345529 1.973914 4.476210 76.487470 7.690189 -0.639219 -34.005149 5.689574 -5.219806 0.000000 0.000000 -0.000000 -0.000004 0.000000 -0.000000 -51.290561 -15.096579 -5.550619 75.405165 -8.242772 -4.598149 -36.737586 -10.278250 4.217107 0.000000 -0.000001 -0.000000 -0.000001 -0.000001 -0.000001 9.873852 1.479285 1.219099 7.603459 0.776394 0.053755 7.594515 0.865696 0.034386 -11.221129 -1.914913 7.441272 -27.443505 2.006290 -5.891918 -0.000000 -0.000000 0.000000 -0.000000 -0.000000 0.000000 -0.000000 -0.000000 0.000000 -0.000000 -0.000000 -0.000000 -0.000000 -0.000000 -0.000000 -0.000000 -0.000000 -0.000000 -0.000000 -0.000000 -0.000000 -0.000000 -0.000000 0.000000 -0.000000 -0.000000 0.000000 3.557351 -26.212548 4.772369 -62.448727 -21.862964 -66.788240 0.000255 -109.334335 0.000249 0.750567 -5.137687 14.576848 -15.245218 10.163066 26.456301 3.939057 7.948696 0.746823 0.000002 0.000003 0.000001 0.000005 -0.000003 -0.000000 0.000005 0.000021 -0.000076 0.000001 -0.000003 -0.000001 0.000004 -0.001929 0.015982 -0.000003 0.001941 -0.016058 0.000000 0.000000 0.000001 0.000004 -0.000007 0.000004 0.000004 0.000016 -0.000055 0.000000 0.000003 -0.000001 -0.018081 4.054250 0.511067 -0.018084 -4.054242 -0.511131 -0.000000 0.000001 -0.000001 -0.000000 -0.000002 -0.000001 1.196395 13.130262 10.955146 -58.753246 43.561201 51.473771 0.000193 106.323963 -0.000202 3.436628 -3.949669 -38.593519 -6.948219 -5.049346 -29.743001 4.637200 -8.634127 -0.225416 -0.000000 -0.000001 0.000004 0.000005 0.000001 -0.000010 0.000011 -0.000003 0.000068 -0.000000 -0.000002 -0.000002 0.000001 0.000006 0.000003 0.000012 -0.000011 0.000082 0.000001 0.000001 -0.000001 0.000003 0.000003 0.000004 0.000010 -0.000006 0.000069 0.000000 0.000000 -0.000001 0.000009 0.000000 -0.000013 -0.000002 -0.000006 0.000084 -0.000000 0.000003 -0.000003 0.000002 0.000002 -0.000001 -0.000000 0.000000 -0.000000 -0.000000 0.000000 -0.000000 -0.000000 0.000000 -0.000000 -0.000000 0.000000 -0.000000 -0.000000 0.000000 -0.000000 -0.000000 0.000000 -0.000000 -0.000000 0.000000 -0.000000 -0.000000 0.000000 -0.000000 -0.000000 0.000000 -0.000000 -0.000000 0.000000 -0.000000 0.000001 -0.000000 -0.000000 0.000001 -0.000000 -0.000000 0.000001 -0.000000 -0.000000 
0.079728 59.026596 0.634088 11.799327 2.959376 -1.349291 -0.000000 -0.000000 0.000000 -53.335373 1.974373 4.478091 76.493242 7.693454 -0.641879 -34.009073 5.692072 -5.224342 0.000000 0.000002 -0.000000 -0.000000 -0.000000 0.000000 -51.285821 -15.096745 -5.543490 75.411900 -8.242485 -4.610673 -36.738799 -10.281504 4.215804 -0.000000 -0.000001 -0.000000 0.000002 0.000000 -0.000000 9.877543 1.473653 1.226249 7.606521 0.771335 0.057330 7.597687 0.860256 0.038071 -11.217814 -1.906714 7.417773 -27.445208 2.029513 -5.944889 0.000000 -0.000000 -0.000000 0.000000 -0.000000 -0.000000 0.000000 -0.000000 -0.000000 0.000000 -0.000000 -0.000000 0.000000 -0.000000 -0.000000 0.000000 -0.000000 -0.000000 0.000000 -0.000000 -0.000000 0.000000 -0.000000 -0.000000 0.000000 -0.000000 -0.000000 3.557346 -26.212548 4.772369 -62.440278 -21.827234 -66.761705 -0.000013 -109.308736 -0.000008 0.684136 -5.143285 14.587546 -15.245220 10.163065 26.456301 3.939056 7.948693 0.746822 0.000001 0.000001 -0.000001 0.000006 -0.000003 0.000003 0.000004 0.000020 -0.000076 0.000000 0.000003 -0.000001 0.000005 -0.001927 0.015984 -0.000004 0.001941 -0.016058 -0.000001 -0.000001 0.000000 0.000004 -0.000004 0.000004 0.000004 0.000014 -0.000056 -0.000001 -0.000001 -0.000000 -0.018080 4.054250 0.511072 -0.018085 -4.054244 -0.511130 0.000002 -0.000003 -0.000001 0.000001 -0.000001 0.000001 1.196371 13.156128 10.917910 -58.738821 43.556174 51.453225 -0.000019 106.272669 0.000017 3.405161 -3.961065 -38.612104 -6.948222 -5.049359 -29.743001 4.637203 -8.634130 -0.225421 -0.000000 0.000002 0.000001 0.000005 -0.000006 -0.000011 0.000010 -0.000006 0.000068 -0.000001 0.000002 0.000001 -0.000001 -0.000001 0.000003 0.000013 -0.000014 0.000079 0.000001 0.000000 0.000001 0.000001 -0.000004 0.000005 0.000009 -0.000003 0.000068 0.000002 0.000002 -0.000002 0.000009 -0.000005 -0.000010 -0.000004 -0.000005 0.000084 -0.000000 -0.000001 0.000000 0.000001 -0.000001 0.000001 0.000000 -0.000000 -0.000000 0.000000 0.000000 -0.000000 0.000000 -0.000000 0.000000 0.000000 -0.000000 0.000000 0.000000 -0.000000 -0.000000 0.000000 0.000000 -0.000000 0.000000 -0.000000 0.000000 0.000000 -0.000000 0.000000 0.000000 -0.000000 -0.000000 0.000000 0.000000 -0.000000 -0.000000 -0.000000 0.000000 -0.000000 -0.000000 0.000000 -0.000000 -0.000000 0.000000 
0.077928 59.024391 0.632606 11.789928 2.951855 -1.344153 0.000000 0.000000 -0.000000 -53.328792 1.975235 4.478332 76.499136 7.696581 -0.642165 -34.012682 5.696367 -5.228348 -0.000000 0.000000 0.000000 0.000001 0.000000 0.000000 -51.284130 -15.101830 -5.540227 75.418594 -8.241596 -4.622683 -36.741227 -10.281339 4.214572 -0.000000 -0.000001 -0.000000 0.000001 0.000001 -0.000001 9.880729 1.467815 1.232452 7.609040 0.766258 0.060673 7.600269 0.854941 0.041498 -11.217691 -1.900474 7.402069 -27.452695 2.051494 -5.990265 0.000000 0.000000 -0.000000 0.000000 0.000000 -0.000000 0.000000 0.000000 -0.000000 0.000000 0.000000 -0.000000 0.000000 0.000000 -0.000000 0.000000 0.000000 -0.000000 0.000000 0.000000 -0.000000 0.000000 0.000000 -0.000000 0.000000 0.000000 -0.000000 3.557355 -26.212548 4.772370 -62.433509 -21.799061 -66.740319 0.000173 -109.303019 0.000165 0.645381 -5.153767 14.610219 -15.245220 10.163063 26.456304 3.939054 7.948692 0.746822 -0.000001 -0.000003 -0.000001 0.000005 -0.000007 0.000003 0.000003 0.000022 -0.000074 0.000001 -0.000003 -0.000002 0.000005 -0.001931 0.015985 -0.000003 0.001945 -0.016057 0.000001 0.000000 0.000002 0.000003 -0.000008 0.000004 0.000006 0.000019 -0.000056 -0.000002 0.000001 -0.000001 -0.018081 4.054250 0.511072 -0.018086 -4.054241 -0.511131 -0.000000 -0.000001 0.000003 0.000000 0.000001 -0.000000 1.196228 13.178827 10.886481 -58.723344 43.560337 51.421038 0.000077 106.244706 -0.000100 3.384695 -3.970394 -38.621288 -6.948223 -5.049354 -29.743001 4.637202 -8.634127 -0.225423 0.000000 0.000004 0.000005 0.000006 -0.000006 -0.000010 0.000011 -0.000004 0.000070 0.000001 -0.000001 -0.000002 0.000000 -0.000001 0.000002 0.000013 -0.000010 0.000078 0.000000 0.000001 -0.000001 0.000002 -0.000004 0.000003 0.000011 -0.000004 0.000067 -0.000000 -0.000005 0.000001 0.000008 -0.000009 -0.000014 -0.000004 -0.000006 0.000085 -0.000001 -0.000000 -0.000001 0.000003 0.000002 -0.000002 0.000002 -0.000001 0.000000 -0.000000 -0.000000 -0.000000 0.000002 -0.000001 0.000000 0.000002 -0.000001 0.000000 0.000002 -0.000001 0.000000 -0.000000 -0.000000 -0.000000 0.000002 -0.000001 0.000000 0.000002 -0.000001 0.000000 0.000002 -0.000001 0.000000 -0.000000 -0.000000 -0.000000 0.000000 0.000000 -0.000000 0.000000 0.000000 -0.000000 0.000000 0.000000 -0.000000 
0.076433 59.022118 0.631260 11.783795 2.946699 -1.340128 0.000001 0.000000 -0.000000 -53.326224 1.976752 4.476640 76.504846 7.699572 -0.639535 -34.015370 5.701278 -5.232153 -0.000000 0.000000 0.000000 0.000002 -0.000000 -0.000000 -51.285821 -15.109312 -5.541436 75.425998 -8.239261 -4.631754 -36.744171 -10.277950 4.213189 0.000000 -0.000001 0.000000 0.000002 -0.000001 -0.000000 9.883510 1.461467 1.236884 7.610889 0.761035 0.063448 7.602207 0.849654 0.044323 -11.220976 -1.896258 7.395013 -27.466499 2.071050 -6.020809 0.000000 -0.000000 -0.000000 0.000000 -0.000000 -0.000000 0.000000 -0.000000 -0.000000 0.000000 -0.000000 -0.000000 0.000000 -0.000000 -0.000000 0.000000 -0.000000 -0.000000 0.000000 -0.000000 -0.000000 0.000000 -0.000000 -0.000000 0.000000 -0.000000 -0.000000 3.557350 -26.212548 4.772369 -62.430456 -21.781181 -66.726358 0.000117 -109.318414 0.000125 0.640057 -5.168564 14.635372 -15.245220 10.163068 26.456302 3.939055 7.948697 0.746823 0.000001 -0.000001 -0.000001 0.000004 -0.000004 0.000004 0.000002 0.000019 -0.000074 0.000003 0.000001 0.000000 0.000004 -0.001929 0.015985 -0.000002 0.001940 -0.016056 0.000003 0.000001 0.000003 0.000003 -0.000005 0.000005 0.000005 0.000014 -0.000053 -0.000001 -0.000000 0.000000 -0.018080 4.054254 0.511071 -0.018085 -4.054237 -0.511132 -0.000001 0.000001 0.000001 -0.000002 0.000002 0.000002 1.195814 13.196529 10.865738 -58.712730 43.570771 51.388554 0.000262 106.243852 -0.000246 3.384048 -3.974724 -38.619887 -6.948221 -5.049358 -29.743005 4.637200 -8.634128 -0.225420 0.000001 -0.000003 0.000003 0.000006 -0.000007 -0.000011 0.000010 -0.000003 0.000068 -0.000003 0.000000 -0.000001 0.000001 0.000002 0.000004 0.000013 -0.000013 0.000078 0.000000 0.000000 -0.000001 0.000003 -0.000004 0.000004 0.000010 -0.000004 0.000070 -0.000000 -0.000000 0.000001 0.000008 -0.000003 -0.000011 -0.000002 -0.000008 0.000084 0.000001 0.000000 -0.000001 0.000000 -0.000000 -0.000001 -0.000001 -0.000000 -0.000000 0.000001 0.000000 -0.000000 -0.000001 -0.000000 0.000000 -0.000001 -0.000000 0.000000 -0.000001 -0.000000 -0.000000 0.000001 0.000000 -0.000000 -0.000001 -0.000000 0.000000 -0.000001 -0.000000 0.000000 -0.000001 -0.000000 -0.000000 0.000001 0.000000 -0.000000 0.000001 0.000000 -0.000000 0.000001 0.000000 -0.000000 0.000001 0.000000 -0.000000 
